<?xml version="1.0" standalone="no"?>
<!DOCTYPE svg PUBLIC "-//W3C//DTD SVG 20010904//EN"
 "http://www.w3.org/TR/2001/REC-SVG-20010904/DTD/svg10.dtd">
<svg version="1.0" xmlns="http://www.w3.org/2000/svg"
 width="225.000000pt" height="224.000000pt" viewBox="0 0 225.000000 224.000000"
 preserveAspectRatio="xMidYMid meet">

<g transform="translate(0.000000,224.000000) scale(0.100000,-0.100000)"
fill="#000000" stroke="none">
<path d="M0 1121 l0 -1121 422 0 422 0 -32 31 c-18 17 -32 35 -32 40 0 5 -6 9
-13 9 -7 0 -13 9 -13 20 0 11 1 20 2 20 2 0 31 -27 65 -60 l63 -60 683 0 683
0 0 1120 0 1120 -849 0 c-840 0 -849 0 -854 -20 -3 -11 -11 -20 -17 -20 -7 0
-10 8 -7 20 4 15 0 20 -14 20 -12 0 -19 -7 -19 -20 0 -22 -15 -27 -23 -7 -4 9
-6 9 -6 -1 -1 -7 3 -21 8 -31 7 -13 6 -18 -5 -18 -7 0 -14 5 -15 11 -1 13 -17
-24 -18 -41 -1 -7 10 -13 23 -13 29 0 46 -48 23 -65 -15 -10 -15 -37 -2 -68 6
-15 10 -16 16 -5 7 10 9 10 9 1 0 -7 7 -13 14 -13 11 0 14 -10 12 -35 -2 -19
0 -35 5 -35 5 0 9 9 9 20 0 11 4 20 9 20 6 0 12 15 14 33 3 29 4 28 5 -9 2
-50 10 -59 34 -37 14 13 21 14 30 5 9 -9 4 -27 -20 -74 -51 -102 -65 -227 -37
-343 8 -33 15 -85 15 -116 0 -50 -3 -57 -25 -67 -24 -11 -25 -11 -25 28 0 27
-7 48 -24 67 l-25 28 -20 -22 c-12 -12 -21 -35 -21 -51 0 -16 -9 -41 -20 -55
-11 -14 -20 -33 -20 -44 0 -10 -25 -44 -55 -76 -30 -32 -55 -66 -55 -76 0 -22
-36 -56 -44 -43 -3 6 -3 18 0 29 5 17 5 17 -6 0 -9 -14 -9 -21 0 -32 6 -7 10
-19 9 -27 -4 -34 2 -39 39 -38 20 1 40 2 44 1 21 -3 -80 -177 -136 -236 -17
-18 -18 -18 -12 -1 5 14 2 17 -9 12 -18 -7 -21 20 -3 28 9 3 8 8 -4 16 -20 12
-24 40 -7 40 6 0 8 9 4 23 -5 21 -5 20 9 -3 l14 -24 11 39 c6 21 8 41 6 44 -3
2 -5 -2 -5 -10 0 -12 -2 -11 -10 1 -7 11 -8 5 -4 -20 4 -19 4 -32 0 -29 -12
11 -17 139 -5 139 6 0 4 7 -5 15 -8 8 -22 12 -30 9 -19 -7 -21 2 -4 20 7 7 23
10 37 8 19 -4 23 -2 18 12 -4 9 -2 16 3 16 6 0 10 4 10 8 0 13 -34 11 -42 -2
-5 -7 -8 -5 -8 5 0 9 7 20 16 23 13 5 14 9 3 22 -10 12 -10 15 2 12 8 -2 14 6
16 22 1 14 -1 17 -3 8 -9 -29 -21 -21 -28 17 -4 19 -10 35 -14 35 -4 0 -6 20
-4 44 4 43 4 43 -37 53 -35 9 -41 9 -41 -5 0 -8 -3 -13 -6 -9 -12 11 8 47 26
47 10 0 22 5 25 10 6 9 -10 14 -42 13 -7 -1 -13 3 -13 8 0 5 7 9 16 9 14 0 16
10 11 73 -5 55 -4 65 4 40 5 -18 14 -33 21 -33 7 0 7 4 0 13 -32 39 -19 210
18 222 20 6 44 66 30 75 -6 4 -12 25 -14 48 -3 39 -1 42 21 42 15 0 22 4 18
11 -4 6 -13 8 -21 5 -10 -4 -14 2 -14 19 0 17 4 23 14 19 7 -3 16 2 20 11 4
12 0 19 -14 22 -27 7 -25 23 3 24 20 1 19 2 -5 11 -16 5 -29 17 -29 26 -1 10
-5 4 -9 -13 l-8 -30 -2 30 c-2 30 -2 30 -10 5 -7 -22 -8 -23 -9 -4 -1 12 -7
27 -15 33 -11 10 -16 6 -24 -16 -7 -19 -11 -22 -11 -10 -1 10 4 27 9 38 7 13
7 19 0 19 -5 0 -10 7 -10 16 0 8 4 13 9 10 5 -3 8 16 7 42 -1 47 -1 47 -38 50
l-38 3 0 -1120z m70 1089 c0 -5 -4 -10 -10 -10 -5 0 -10 5 -10 10 0 6 5 10 10
10 6 0 10 -4 10 -10z m427 -92 c-3 -7 -5 -2 -5 12 0 14 2 19 5 13 2 -7 2 -19
0 -25z m748 2 c50 -13 99 -27 109 -33 11 -5 53 -9 95 -9 41 1 81 -4 88 -10 17
-14 16 -43 -2 -72 -15 -22 -13 -26 44 -90 67 -76 74 -94 91 -220 10 -70 10
-96 0 -126 -13 -39 -10 -49 61 -207 17 -40 17 -73 -1 -73 -5 0 -12 5 -15 11
-4 6 -25 9 -48 7 -25 -1 -42 2 -45 10 -7 21 -22 13 -22 -12 0 -16 7 -27 20
-31 19 -6 60 -50 60 -65 0 -15 -72 -22 -81 -9 -6 10 -11 10 -23 0 -30 -25 -19
-40 24 -36 32 3 42 0 51 -17 9 -16 7 -23 -10 -35 -14 -9 -21 -25 -21 -47 0
-42 -19 -60 -51 -48 -13 5 -54 15 -90 21 -65 13 -66 13 -85 59 -10 26 -20 40
-22 31 -3 -16 -62 -43 -62 -29 0 5 9 12 20 15 11 4 18 11 15 16 -3 5 -1 18 5
29 9 16 8 24 -5 36 -8 8 -15 21 -14 27 0 9 2 8 6 0 8 -22 20 -14 21 15 2 55 4
62 19 51 10 -9 13 -8 13 4 0 8 7 18 16 21 11 4 14 12 9 24 -4 9 -8 26 -10 37
-4 29 -16 58 -32 75 -7 8 -27 30 -43 47 -17 18 -30 43 -30 56 0 13 -5 28 -11
34 -16 16 -2 50 22 56 12 3 18 10 14 16 -3 6 -2 11 3 11 6 0 13 7 16 16 3 8 2
12 -4 9 -16 -10 -12 11 5 25 20 17 20 41 -1 33 -8 -3 -13 -12 -10 -19 3 -8 1
-14 -4 -14 -4 0 -22 -11 -38 -25 -23 -19 -31 -22 -35 -11 -3 7 1 23 9 35 14
19 14 21 -3 18 -23 -3 -68 -34 -69 -47 -1 -6 -2 -15 -3 -21 0 -5 -5 -7 -11 -4
-6 3 -7 -1 -4 -9 5 -14 8 -14 29 0 30 20 41 13 49 -28 5 -28 1 -37 -31 -70
-26 -27 -39 -34 -45 -25 -6 9 -8 9 -8 0 0 -7 -4 -13 -9 -13 -5 0 -7 10 -3 22
4 17 2 20 -12 15 -10 -4 -20 -7 -22 -7 -2 0 -4 -7 -4 -15 0 -20 -10 -19 -27 3
-14 16 -14 16 -9 -1 4 -12 2 -17 -6 -15 -7 3 -15 15 -19 29 -4 13 -7 19 -8 14
-2 -17 -41 -16 -41 1 0 8 -5 14 -11 14 -6 0 -8 7 -5 15 3 10 -1 18 -12 22 -9
4 -21 12 -25 20 -10 17 -30 17 -22 1 4 -7 1 -6 -7 3 -16 19 -68 34 -68 19 0
-5 7 -10 15 -10 17 0 35 -31 34 -57 0 -14 -2 -13 -10 6 -7 18 -14 22 -32 17
-16 -4 -29 2 -49 27 -38 44 -37 71 1 65 17 -2 28 -1 25 4 -3 4 0 8 6 8 6 0 8
5 4 11 -4 8 -9 7 -16 -2 -8 -11 -9 -11 -5 1 6 22 49 14 69 -13 10 -12 18 -17
18 -12 0 17 -14 31 -44 47 l-29 15 31 6 c16 3 42 4 57 1 40 -7 69 4 55 21 -6
8 -18 11 -27 8 -13 -5 -13 -3 -4 15 7 12 9 22 6 22 -4 0 -3 6 2 13 13 21 11
56 -4 50 -15 -6 -18 13 -3 22 13 8 0 36 -14 28 -6 -3 -2 4 9 16 16 19 17 24 5
31 -19 12 -27 12 -35 0 -3 -5 -1 -10 6 -10 16 0 -22 -29 -38 -30 -7 0 -12 9
-10 20 4 23 17 39 17 20 0 -9 5 -7 14 6 13 17 12 20 -6 27 -25 9 -38 1 -38
-23 0 -10 -14 -32 -31 -50 -21 -20 -29 -37 -26 -50 3 -11 1 -22 -3 -25 -11 -7
-7 -102 5 -128 5 -11 3 -23 -4 -30 -9 -9 -11 -8 -6 4 12 32 -42 9 -61 -26 -17
-32 -17 -33 5 -61 15 -19 18 -31 11 -38 -14 -14 -27 6 -39 64 -11 53 0 119 28
159 10 14 21 35 24 46 10 35 32 90 42 105 13 21 15 40 3 40 -5 0 -8 8 -6 18 2
9 8 17 14 17 12 0 45 31 39 37 -10 10 53 24 75 16 22 -8 23 -9 4 -23 -10 -8
-15 -15 -10 -15 6 0 1 -7 -10 -15 -25 -19 -11 -19 27 0 16 9 27 20 24 25 -3 5
5 12 17 16 12 3 28 12 35 18 32 28 43 36 43 31 0 -3 8 -1 18 4 21 13 40 10
157 -19z m-245 -4 c0 -3 -4 -8 -10 -11 -5 -3 -10 -1 -10 4 0 6 5 11 10 11 6 0
10 -2 10 -4z m-465 -126 c3 -5 -1 -10 -10 -10 -9 0 -13 5 -10 10 3 6 8 10 10
10 2 0 7 -4 10 -10z m395 -54 c0 -2 -8 -10 -17 -17 -16 -13 -17 -12 -4 4 13
16 21 21 21 13z m-55 -26 c3 -5 1 -10 -4 -10 -6 0 -11 5 -11 10 0 6 2 10 4 10
3 0 8 -4 11 -10z m30 -126 c-26 -19 -44 -18 -41 3 3 19 26 31 26 14 0 -6 4
-11 8 -11 5 0 9 7 9 15 0 8 -4 15 -9 15 -5 0 -6 5 -2 12 5 8 11 4 18 -11 8
-19 6 -26 -9 -37z m-35 36 c-20 -13 -33 -13 -25 0 3 6 14 10 23 10 15 0 15 -2
2 -10z m-773 -132 c-3 -8 -6 -5 -6 6 -1 11 2 17 5 13 3 -3 4 -12 1 -19z m-31
-35 c-10 -10 -19 5 -10 18 6 11 8 11 12 0 2 -7 1 -15 -2 -18z m9 -33 c3 -6 -1
-7 -9 -4 -18 7 -21 14 -7 14 6 0 13 -4 16 -10z m785 -40 c0 -5 -4 -10 -10 -10
-5 0 -10 5 -10 10 0 6 5 10 10 10 6 0 10 -4 10 -10z m136 -113 c-6 -26 17 -67
39 -67 40 0 85 -43 85 -80 0 -19 -39 -10 -89 21 -51 32 -72 67 -70 118 l1 26
8 -25 c7 -22 8 -22 9 -4 1 20 9 34 19 34 2 0 2 -10 -2 -23z m119 -37 c3 -5 1
-10 -4 -10 -6 0 -11 5 -11 10 0 6 2 10 4 10 3 0 8 -4 11 -10z m134 -27 c15 3
25 -1 31 -14 8 -14 7 -19 -1 -19 -7 0 -5 -9 5 -25 14 -21 15 -32 6 -65 -6 -22
-15 -40 -20 -40 -6 0 -10 -9 -10 -20 0 -13 9 -22 25 -26 24 -6 36 -34 15 -34
-18 0 -25 5 -22 17 1 6 -7 14 -18 18 -11 3 -20 15 -20 26 0 10 -7 19 -15 19
-8 0 -15 9 -15 20 0 11 4 20 9 20 5 0 3 25 -4 57 -13 56 -10 97 5 72 5 -6 17
-9 29 -6z m-65 -14 c-8 -14 -24 -10 -24 6 0 9 6 12 15 9 8 -4 12 -10 9 -15z
m-1087 -91 c-2 -13 -4 -3 -4 22 0 25 2 35 4 23 2 -13 2 -33 0 -45z m1100 37
c7 -13 10 -42 6 -81 l-6 -61 32 -6 c24 -5 31 -12 30 -29 0 -23 0 -23 -11 2
-10 23 -11 24 -16 5 l-5 -20 -8 20 c-7 19 -8 19 -8 -2 -1 -13 -5 -23 -9 -23
-14 0 -32 23 -32 40 0 9 -8 42 -18 72 -13 37 -16 62 -10 80 10 30 38 32 55 3z
m-1070 -47 c-3 -7 -5 -2 -5 12 0 14 2 19 5 13 2 -7 2 -19 0 -25z m745 -37 c40
-33 91 -76 113 -96 39 -35 39 -35 8 -21 -34 17 -219 176 -204 176 5 0 43 -27
83 -59z m-105 2 c9 -13 18 -22 20 -19 2 2 14 -6 27 -18 12 -11 37 -32 54 -45
17 -14 29 -28 26 -33 -3 -4 -11 -2 -19 4 -23 23 -50 43 -58 45 -12 3 -107 87
-107 95 0 15 42 -6 57 -29z m460 -129 c-3 -3 -12 -4 -19 -1 -8 3 -5 6 6 6 11
1 17 -2 13 -5z m-243 -29 c11 -8 16 -15 10 -15 -16 -1 40 -29 59 -30 9 0 17
-5 17 -11 0 -13 -51 -3 -60 11 -3 5 -17 13 -31 18 -14 6 -26 17 -26 26 0 20 6
20 31 1z m141 -43 c-3 -3 -16 5 -28 17 l-22 23 28 -17 c15 -10 25 -20 22 -23z
m18 -72 c163 -73 167 -67 12 14 -44 24 -46 26 -19 23 17 -3 42 -11 55 -18 21
-10 23 -10 14 2 -5 8 -3 7 6 -2 9 -10 42 -27 74 -37 31 -11 53 -22 47 -26 -11
-6 -8 -68 3 -87 12 -18 -37 0 -58 22 -22 24 -28 24 -20 2 5 -13 -4 -9 -28 11
-18 16 -71 46 -116 67 -45 22 -87 48 -93 59 -16 29 -3 26 123 -30z m-262 -76
c6 -8 8 -14 5 -14 -4 0 -2 -9 4 -21 7 -11 18 -18 25 -15 7 2 25 -6 40 -20 14
-13 30 -24 35 -24 6 0 15 -9 22 -20 7 -11 18 -20 25 -20 7 0 13 -7 13 -15 0
-9 6 -12 15 -9 17 7 85 -58 85 -81 0 -7 7 -15 15 -19 17 -6 37 -50 37 -83 0
-13 5 -20 13 -17 7 3 19 -2 28 -10 19 -20 31 -21 24 -2 -3 8 1 17 9 20 24 9
54 7 54 -4 0 -5 -9 -10 -19 -10 -15 0 -21 -8 -23 -32 -2 -17 -10 -33 -18 -35
-13 -4 -13 -3 0 6 24 17 -11 14 -48 -4 -33 -17 -34 -40 -1 -50 10 -4 19 -11
19 -16 0 -5 4 -9 10 -9 5 0 7 7 4 15 -4 9 0 15 10 15 9 0 16 6 16 13 1 33 80
89 80 57 0 -5 -9 -10 -20 -10 -27 0 -25 -8 5 -32 l25 -20 -22 -18 c-13 -10
-19 -22 -15 -27 5 -4 14 -1 20 7 7 8 26 24 42 34 24 16 27 16 16 3 -12 -15
-11 -17 7 -17 11 0 26 -8 33 -17 11 -15 11 -16 -1 -5 -8 6 -27 12 -42 12 -29
0 -28 0 -43 -77 -4 -21 -3 -24 4 -13 9 13 13 12 26 -7 17 -25 60 -31 68 -10 3
6 6 3 6 -8 1 -11 8 -31 17 -43 10 -15 13 -32 9 -53 -4 -16 -3 -29 2 -28 20 3
27 -2 13 -11 -12 -7 -8 -10 15 -11 31 -1 28 -3 -17 -13 -25 -6 -28 -11 -28
-47 0 -25 -5 -42 -14 -45 -8 -3 -12 -12 -9 -20 3 -8 2 -14 -1 -14 -4 0 -11 10
-16 23 -8 20 -9 20 -9 2 -1 -17 -4 -15 -21 10 -11 17 -19 38 -16 48 2 9 0 17
-5 17 -5 0 -9 5 -9 11 0 7 -9 19 -19 28 -10 9 -21 28 -22 41 -2 14 -11 31 -19
38 -8 8 -9 11 -2 7 6 -3 12 -2 12 3 0 13 -29 24 -42 16 -7 -5 -9 2 -5 18 7 28
-14 55 -33 43 -5 -3 -10 -1 -10 5 0 23 -42 71 -53 62 -22 -17 -57 -21 -57 -7
0 18 -15 26 -34 19 -12 -5 -14 -10 -6 -20 7 -7 10 -21 9 -31 -1 -10 2 -43 8
-73 28 -138 35 -199 28 -217 -7 -14 -10 -8 -15 27 -3 25 -11 55 -18 66 -6 12
-9 24 -6 27 3 2 -2 21 -10 41 -8 19 -14 49 -14 66 1 16 -6 38 -15 48 -11 12
-14 29 -10 55 3 23 1 37 -6 37 -6 0 -11 7 -11 17 0 14 2 15 18 1 46 -40 58
-30 17 14 -14 15 -25 34 -25 43 0 8 -4 15 -10 15 -5 0 -10 7 -10 15 0 8 -5 15
-11 15 -12 0 -45 30 -43 39 2 9 -15 51 -20 51 -3 0 -3 -8 1 -17 4 -14 2 -14
-9 2 -18 24 -30 77 -15 68 6 -4 7 4 3 21 -6 24 -4 27 16 25 42 -4 58 1 58 16
0 8 -9 15 -21 15 -11 0 -17 -4 -14 -10 3 -5 -4 -10 -16 -10 -18 0 -20 2 -8 16
11 14 9 15 -27 9 -32 -6 -37 -5 -27 6 10 10 8 15 -9 23 -27 14 -42 64 -25 85
8 10 8 12 1 8 -7 -4 -13 3 -16 17 -4 19 -1 22 13 19 10 -3 24 -11 30 -19z
m-143 -71 c16 -30 15 -38 -3 -23 -8 7 -15 20 -15 29 0 14 -2 14 -10 1 -5 -8
-10 -13 -11 -10 0 3 -3 21 -6 40 l-5 35 19 -25 c10 -14 24 -35 31 -47z m586
-11 c23 -16 55 -32 70 -36 15 -4 45 -26 67 -49 34 -35 39 -47 35 -74 -4 -25 1
-40 21 -64 48 -57 88 -133 87 -165 -1 -36 -12 -57 -25 -49 -15 10 -11 -2 26
-78 34 -70 34 -73 21 -117 -9 -27 -15 -36 -15 -23 -1 12 -10 46 -20 75 -27 74
-34 143 -17 157 8 7 16 23 19 37 3 19 0 24 -12 23 -48 -4 -63 1 -58 20 3 12
-3 27 -13 36 -10 9 -17 26 -15 37 4 17 2 18 -12 6 -15 -12 -16 -9 -10 27 l6
40 -13 -39 -12 -39 -24 34 c-13 19 -41 53 -62 76 -21 24 -38 47 -38 53 0 19
42 10 85 -20 54 -37 81 -39 40 -3 -16 15 -29 34 -28 42 1 9 0 12 -2 6 -3 -5
-30 -9 -61 -8 -63 1 -100 28 -89 63 3 11 1 28 -5 40 -15 29 3 26 54 -8z m-695
-56 c56 -50 121 -156 95 -156 -14 0 -74 54 -74 67 0 8 -4 12 -9 9 -4 -3 -7 5
-6 19 2 17 -1 22 -11 18 -8 -3 -14 1 -14 10 0 8 -6 17 -14 20 -8 3 -20 16 -26
27 -11 20 -10 21 12 15 12 -4 34 -17 47 -29z m126 16 c13 -9 65 -106 65 -121
0 -7 27 -57 60 -111 58 -97 66 -119 61 -170 -3 -20 -5 -18 -12 13 -9 37 -53
110 -91 149 -10 10 -18 27 -18 38 0 11 -4 20 -10 20 -5 0 -10 8 -10 19 0 10
-7 24 -15 31 -8 7 -15 18 -15 25 0 6 -9 20 -21 31 -11 10 -18 26 -16 36 3 10
1 21 -4 24 -5 3 -9 9 -9 15 0 11 21 12 35 1z m-224 -127 c24 -5 89 -52 89 -64
0 -4 11 -13 24 -19 29 -13 119 -129 106 -137 -6 -4 -10 -2 -10 4 0 14 -111
122 -120 116 -4 -3 -10 1 -13 9 -3 8 -16 16 -29 18 -16 2 -25 12 -29 33 -5 21
-7 24 -8 9 -1 -24 -31 -37 -52 -23 -8 5 -24 9 -36 9 -26 0 -35 12 -27 35 5 11
15 15 31 12 13 -2 26 0 29 5 3 4 10 6 15 3 5 -4 18 -8 30 -10z m740 -6 l24
-20 -30 17 c-39 24 -40 24 -28 24 6 0 21 -9 34 -21z m-521 -49 c0 -5 -5 -10
-11 -10 -5 0 -7 5 -4 10 3 6 8 10 11 10 2 0 4 -4 4 -10z m565 -10 c3 -5 1 -10
-4 -10 -6 0 -11 5 -11 10 0 6 2 10 4 10 3 0 8 -4 11 -10z m85 -105 c0 -2 -10
-9 -22 -15 -22 -11 -22 -10 -4 4 21 17 26 19 26 11z m-135 -35 c3 -5 -3 -10
-14 -10 -12 0 -21 5 -21 10 0 6 6 10 14 10 8 0 18 -4 21 -10z m-682 -54 c45
-20 91 -60 85 -76 -3 -10 -7 -10 -18 1 -16 15 -62 39 -117 61 -17 7 -29 16
-27 20 8 12 41 10 77 -6z m1126 -178 c51 -46 55 -52 66 -87 l8 -25 -34 28
c-32 27 -104 126 -92 126 3 0 27 -19 52 -42z"/>
<path d="M1140 1926 c0 -2 7 -6 15 -10 8 -3 15 -1 15 4 0 6 -7 10 -15 10 -8 0
-15 -2 -15 -4z"/>
<path d="M1040 1866 c0 -2 7 -7 16 -10 8 -3 12 -2 9 4 -6 10 -25 14 -25 6z"/>
<path d="M1000 1830 c0 -5 -7 -10 -16 -10 -8 0 -12 -5 -9 -10 5 -8 12 -7 22 2
18 14 23 14 32 1 3 -5 17 -6 31 -2 l25 7 -27 1 c-16 1 -28 6 -28 11 0 6 -7 10
-15 10 -8 0 -15 -4 -15 -10z"/>
<path d="M1190 1810 c-9 -6 -10 -10 -3 -10 6 0 15 5 18 10 8 12 4 12 -15 0z"/>
<path d="M1040 1781 c0 -5 -12 -13 -27 -18 -22 -8 -24 -11 -10 -16 11 -4 26 3
43 18 21 19 23 25 10 25 -9 0 -16 -4 -16 -9z"/>
<path d="M1085 1780 c3 -5 10 -10 16 -10 5 0 9 5 9 10 0 6 -7 10 -16 10 -8 0
-12 -4 -9 -10z"/>
<path d="M1210 1781 c-8 -6 -19 -7 -25 -4 -5 3 -4 0 3 -8 10 -11 15 -10 29 4
19 19 16 22 -7 8z"/>
<path d="M1135 1760 c-19 -8 -19 -9 2 -9 12 -1 25 4 28 9 7 12 -2 12 -30 0z"/>
<path d="M1370 1746 c0 -14 5 -26 10 -26 6 0 10 9 10 19 0 11 -4 23 -10 26 -6
4 -10 -5 -10 -19z"/>
<path d="M1041 1720 c7 -14 17 -29 23 -33 8 -6 7 -10 -1 -14 -7 -2 -13 -9 -13
-15 0 -6 7 -5 16 3 13 11 17 11 25 -2 9 -17 69 -24 69 -8 0 5 -11 9 -24 9 -14
0 -28 5 -32 12 -4 6 -3 8 2 5 6 -3 10 3 11 13 1 11 -2 22 -8 25 -5 3 -6 -1 -3
-10 10 -25 -35 -13 -58 16 l-19 24 12 -25z"/>
<path d="M1147 1705 c-9 -19 -12 -35 -7 -35 6 0 10 8 10 18 0 13 2 14 9 4 7
-11 9 -11 14 2 4 9 2 16 -3 16 -5 0 -7 7 -4 15 12 29 -3 15 -19 -20z"/>
<path d="M818 1673 c7 -3 16 -2 19 1 4 3 -2 6 -13 5 -11 0 -14 -3 -6 -6z"/>
<path d="M910 1666 c0 -2 7 -7 16 -10 8 -3 12 -2 9 4 -6 10 -25 14 -25 6z"/>
<path d="M1050 1641 c-21 -6 -22 -8 -7 -14 19 -7 47 1 47 14 0 10 -4 10 -40 0z"/>
<path d="M1102 1629 c-23 -9 -21 -34 1 -26 7 2 29 -11 50 -30 30 -27 41 -32
52 -23 8 6 13 20 12 31 -1 12 -5 15 -11 9 -6 -6 -18 -10 -29 -10 -15 0 -14 4
10 26 15 15 20 21 11 14 -10 -7 -18 -9 -18 -5 0 4 -8 1 -17 -6 -10 -8 -14 -9
-10 -2 4 6 3 14 -3 18 -5 3 -10 1 -10 -4 0 -6 -5 -11 -11 -11 -6 0 -9 7 -5 15
3 8 4 15 3 14 -1 0 -12 -4 -25 -10z"/>
<path d="M1545 1590 c-58 -33 -65 -35 -65 -15 0 18 -36 39 -45 25 -3 -5 -2
-10 4 -10 6 0 8 -7 5 -15 -4 -8 -1 -15 6 -15 6 0 9 -4 5 -10 -3 -5 7 -16 22
-24 l28 -15 -25 -2 c-20 -1 -18 -3 10 -9 23 -4 43 -2 57 7 31 18 42 16 36 -7
-3 -11 0 -20 6 -20 6 0 11 4 11 10 0 5 13 22 30 36 36 32 46 60 30 79 -19 22
-59 17 -115 -15z m15 -35 c-13 -14 -28 -25 -33 -25 -6 0 0 11 13 25 13 14 28
25 33 25 6 0 0 -11 -13 -25z m41 -10 c-1 -6 -13 -13 -27 -17 -25 -7 -26 -6 -8
13 18 20 36 22 35 4z"/>
<path d="M1588 1463 c7 -3 16 -2 19 1 4 3 -2 6 -13 5 -11 0 -14 -3 -6 -6z"/>
<path d="M1577 1443 c-9 -2 -15 -9 -12 -14 9 -14 32 -11 39 6 6 15 4 16 -27 8z"/>
<path d="M875 810 c-3 -5 -1 -10 4 -10 6 0 11 5 11 10 0 6 -2 10 -4 10 -3 0
-8 -4 -11 -10z"/>
<path d="M970 711 c0 -5 5 -13 10 -16 6 -3 10 -2 10 4 0 5 -4 13 -10 16 -5 3
-10 2 -10 -4z"/>
<path d="M1098 584 c-8 -7 2 -44 12 -44 11 0 21 30 14 41 -6 10 -18 12 -26 3z"/>
<path d="M1075 518 c4 -13 17 -31 28 -40 12 -9 19 -20 15 -24 -4 -3 -14 1 -23
10 -22 22 -32 20 -12 -2 10 -10 17 -23 17 -28 0 -5 12 -17 26 -28 21 -14 28
-16 37 -6 9 10 8 12 -5 7 -21 -7 -23 4 -5 22 10 10 9 15 -3 24 -21 17 -48 53
-32 43 8 -5 12 0 12 14 0 12 -4 19 -9 15 -5 -3 -12 -1 -16 5 -3 5 -13 10 -21
10 -11 0 -14 -6 -9 -22z"/>
<path d="M1150 524 c0 -8 5 -12 10 -9 6 4 8 11 5 16 -9 14 -15 11 -15 -7z"/>
<path d="M1196 495 c10 -8 24 -14 29 -14 6 0 1 6 -9 14 -11 8 -24 15 -30 15
-5 0 -1 -7 10 -15z"/>
<path d="M1147 487 c-3 -7 3 -13 14 -13 13 0 15 3 7 13 -6 7 -12 13 -13 13 -2
0 -5 -6 -8 -13z"/>
<path d="M211 2237 c2 -2 12 -9 22 -16 14 -11 17 -11 17 1 0 7 -10 14 -21 15
-12 1 -20 1 -18 0z"/>
<path d="M445 2229 c-4 -6 -5 -12 -2 -15 2 -3 7 2 10 11 7 17 1 20 -8 4z"/>
<path d="M215 2183 c-20 -15 -20 -15 2 -9 16 5 23 2 26 -11 4 -14 5 -14 6 4 1
29 -10 34 -34 16z"/>
<path d="M290 2160 c-9 -6 -10 -10 -3 -10 6 0 15 5 18 10 8 12 4 12 -15 0z"/>
<path d="M161 2098 l-1 -38 43 2 c34 1 36 2 11 5 -27 4 -31 7 -27 31 3 23 2
24 -6 7 -8 -19 -9 -19 -13 5 -4 19 -6 16 -7 -12z"/>
<path d="M452 2088 c2 -6 10 -13 16 -14 7 -1 8 0 2 3 -5 2 -8 9 -4 14 3 5 0 9
-6 9 -7 0 -10 -5 -8 -12z"/>
<path d="M258 2083 c7 -3 16 -2 19 1 4 3 -2 6 -13 5 -11 0 -14 -3 -6 -6z"/>
<path d="M160 1880 c0 -5 5 -10 10 -10 6 0 10 5 10 10 0 6 -4 10 -10 10 -5 0
-10 -4 -10 -10z"/>
<path d="M170 1740 c0 -5 5 -10 11 -10 5 0 7 5 4 10 -3 6 -8 10 -11 10 -2 0
-4 -4 -4 -10z"/>
<path d="M151 1540 c0 -8 4 -24 9 -35 5 -13 9 -14 9 -5 0 8 -4 24 -9 35 -5 13
-9 14 -9 5z"/>
<path d="M171 1344 c0 -11 3 -14 6 -6 3 7 2 16 -1 19 -3 4 -6 -2 -5 -13z"/>
<path d="M230 1210 c0 -5 5 -10 11 -10 5 0 7 5 4 10 -3 6 -8 10 -11 10 -2 0
-4 -4 -4 -10z"/>
<path d="M245 949 c-4 -6 -5 -12 -2 -15 2 -3 7 2 10 11 7 17 1 20 -8 4z"/>
</g>
</svg>
